<svg width="8" height="8" viewBox="0 0 8 8" fill="none" xmlns="http://www.w3.org/2000/svg">
<g clip-path="url(#clip0_1_112)">
<path fill-rule="evenodd" clip-rule="evenodd" d="M4.00011 0.166626C3.05052 0.167119 2.13206 0.503445 1.40898 1.11547C0.685889 1.72749 0.205321 2.5753 0.0532018 3.50729C-0.0989177 4.43929 0.0873292 5.3947 0.578644 6.20268C1.06996 7.01067 1.8343 7.61855 2.735 7.91762C2.93371 7.9545 3.00855 7.83134 3.00855 7.72662C3.00855 7.62191 3.00458 7.3183 3.00325 6.98636C1.89049 7.22675 1.65535 6.51679 1.65535 6.51679C1.47386 6.05577 1.21157 5.93459 1.21157 5.93459C0.848592 5.68828 1.23872 5.69289 1.23872 5.69289C1.64078 5.72121 1.85207 6.10319 1.85207 6.10319C2.20842 6.71107 2.78798 6.53523 3.01584 6.43249C3.0516 6.17498 3.1556 5.99979 3.27019 5.90034C2.3813 5.80024 1.44737 5.45909 1.44737 3.9351C1.44186 3.53986 1.58936 3.15764 1.85936 2.86752C1.81829 2.76741 1.68118 2.36304 1.89843 1.81377C1.89843 1.81377 2.23425 1.70708 2.99862 2.22144C3.65424 2.04317 4.34598 2.04317 5.0016 2.22144C5.7653 1.70708 6.10045 1.81377 6.10045 1.81377C6.31837 2.36172 6.18126 2.7661 6.1402 2.86752C6.41105 3.15769 6.55886 3.54058 6.55285 3.93642C6.55285 5.4637 5.61693 5.80024 4.72672 5.89837C4.86979 6.02218 4.99762 6.26389 4.99762 6.63533C4.99762 7.16748 4.99299 7.59556 4.99299 7.72662C4.99299 7.83266 5.06518 7.95647 5.26787 7.91762C6.16867 7.61851 6.93309 7.01053 7.42439 6.2024C7.9157 5.39428 8.10185 4.43873 7.94955 3.50664C7.79726 2.57456 7.31646 1.72674 6.59313 1.11483C5.8698 0.502911 4.95114 0.166806 4.00143 0.166626H4.00011Z" fill="#949191"/>
<path d="M2.67594 6.65843C2.67594 6.6907 2.63885 6.71836 2.59116 6.71902C2.54347 6.71968 2.50439 6.69334 2.50439 6.66107C2.50439 6.6288 2.54148 6.60113 2.58917 6.60048C2.63686 6.59982 2.67594 6.6255 2.67594 6.65843Z" fill="#949191"/>
<path d="M2.98065 6.60772C2.98661 6.63999 2.9535 6.67358 2.90581 6.68148C2.85812 6.68939 2.81639 6.67029 2.81042 6.63868C2.80446 6.60706 2.83891 6.57282 2.88527 6.56426C2.93164 6.55569 2.97469 6.57545 2.98065 6.60772Z" fill="#949191"/>
<path d="M2.3487 6.63601C2.33877 6.66696 2.29373 6.68079 2.24869 6.66762C2.20365 6.65445 2.17384 6.61757 2.18245 6.58595C2.19106 6.55434 2.23677 6.53985 2.28247 6.55434C2.32817 6.56883 2.35731 6.60374 2.3487 6.63601Z" fill="#949191"/>
<path d="M2.04868 6.507C2.02683 6.53137 1.98245 6.52478 1.94602 6.49185C1.90959 6.45892 1.90098 6.41414 1.92283 6.39043C1.94469 6.36672 1.98907 6.3733 2.02683 6.40557C2.06458 6.43785 2.07187 6.48329 2.04868 6.507V6.507Z" fill="#949191"/>
<path d="M1.83473 6.28568C1.81022 6.3028 1.76849 6.28568 1.74531 6.25143C1.7389 6.24529 1.7338 6.23792 1.73032 6.22977C1.72683 6.22163 1.72504 6.21286 1.72504 6.20401C1.72504 6.19516 1.72683 6.1864 1.73032 6.17825C1.7338 6.1701 1.7389 6.16274 1.74531 6.15659C1.76981 6.14013 1.81155 6.15659 1.83473 6.19018C1.85791 6.22377 1.85857 6.26855 1.83473 6.28568V6.28568Z" fill="#949191"/>
<path d="M1.67712 6.05709C1.6634 6.06396 1.64771 6.06588 1.63272 6.06251C1.61774 6.05915 1.6044 6.05071 1.59498 6.03865C1.56915 6.01099 1.56385 5.97279 1.58372 5.95567C1.60359 5.93854 1.63936 5.94645 1.6652 5.97411C1.69103 6.00177 1.69699 6.03996 1.67712 6.05709Z" fill="#949191"/>
<path d="M1.51483 5.87733C1.50622 5.89709 1.47443 5.90302 1.4486 5.88919C1.42276 5.87536 1.40356 5.84967 1.41283 5.82926C1.4221 5.80884 1.45323 5.80357 1.47907 5.8174C1.5049 5.83123 1.52477 5.85758 1.51483 5.87733Z" fill="#949191"/>
</g>
<defs>
<clipPath id="clip0_1_112">
<rect width="8" height="8" fill="white"/>
</clipPath>
</defs>
</svg>
