<svg width="8" height="8" viewBox="0 0 8 8" fill="none" xmlns="http://www.w3.org/2000/svg">
<g clip-path="url(#clip0_2_151)">
<path fill-rule="evenodd" clip-rule="evenodd" d="M4.00011 0.166664C3.05052 0.167157 2.13206 0.503484 1.40898 1.11551C0.685889 1.72753 0.205321 2.57533 0.0532018 3.50733C-0.0989177 4.43933 0.0873292 5.39474 0.578644 6.20272C1.06996 7.01071 1.8343 7.61859 2.735 7.91765C2.93371 7.95454 3.00855 7.83138 3.00855 7.72666C3.00855 7.62195 3.00458 7.31833 3.00325 6.9864C1.89049 7.22679 1.65535 6.51683 1.65535 6.51683C1.47386 6.05581 1.21157 5.93463 1.21157 5.93463C0.848592 5.68831 1.23872 5.69292 1.23872 5.69292C1.64078 5.72124 1.85207 6.10323 1.85207 6.10323C2.20842 6.71111 2.78798 6.53527 3.01584 6.43253C3.0516 6.17502 3.1556 5.99983 3.27019 5.90038C2.3813 5.80028 1.44737 5.45912 1.44737 3.93514C1.44186 3.5399 1.58936 3.15768 1.85936 2.86756C1.81829 2.76745 1.68118 2.36308 1.89843 1.81381C1.89843 1.81381 2.23425 1.70712 2.99862 2.22148C3.65424 2.04321 4.34598 2.04321 5.0016 2.22148C5.7653 1.70712 6.10045 1.81381 6.10045 1.81381C6.31837 2.36176 6.18126 2.76613 6.1402 2.86756C6.41105 3.15773 6.55886 3.54061 6.55285 3.93646C6.55285 5.46373 5.61693 5.80028 4.72672 5.89841C4.86979 6.02222 4.99762 6.26393 4.99762 6.63537C4.99762 7.16752 4.99299 7.5956 4.99299 7.72666C4.99299 7.8327 5.06518 7.95651 5.26787 7.91765C6.16867 7.61855 6.93309 7.01057 7.42439 6.20244C7.9157 5.39432 8.10185 4.43876 7.94955 3.50668C7.79726 2.5746 7.31646 1.72678 6.59313 1.11487C5.8698 0.50295 4.95114 0.166845 4.00143 0.166664H4.00011Z" fill="#949191"/>
<path d="M2.67594 6.65843C2.67594 6.6907 2.63885 6.71836 2.59116 6.71902C2.54347 6.71967 2.50439 6.69333 2.50439 6.66106C2.50439 6.62879 2.54148 6.60113 2.58917 6.60047C2.63686 6.59981 2.67594 6.6255 2.67594 6.65843Z" fill="#949191"/>
<path d="M2.98065 6.60771C2.98661 6.63999 2.9535 6.67357 2.90581 6.68148C2.85812 6.68938 2.81639 6.67028 2.81042 6.63867C2.80446 6.60706 2.83891 6.57281 2.88527 6.56425C2.93164 6.55569 2.97469 6.57544 2.98065 6.60771Z" fill="#949191"/>
<path d="M2.3487 6.63603C2.33877 6.66698 2.29373 6.68081 2.24869 6.66764C2.20365 6.65447 2.17384 6.61759 2.18245 6.58598C2.19106 6.55436 2.23677 6.53987 2.28247 6.55436C2.32817 6.56885 2.35731 6.60376 2.3487 6.63603Z" fill="#949191"/>
<path d="M2.04868 6.50694C2.02683 6.53131 1.98245 6.52473 1.94602 6.4918C1.90959 6.45887 1.90098 6.41408 1.92283 6.39037C1.94469 6.36666 1.98907 6.37325 2.02683 6.40552C2.06458 6.43779 2.07187 6.48323 2.04868 6.50694V6.50694Z" fill="#949191"/>
<path d="M1.83473 6.28566C1.81022 6.30278 1.76849 6.28566 1.74531 6.25142C1.7389 6.24527 1.7338 6.23791 1.73032 6.22976C1.72683 6.22161 1.72504 6.21285 1.72504 6.204C1.72504 6.19514 1.72683 6.18638 1.73032 6.17823C1.7338 6.17009 1.7389 6.16272 1.74531 6.15658C1.76981 6.14011 1.81155 6.15658 1.83473 6.19017C1.85791 6.22375 1.85857 6.26854 1.83473 6.28566V6.28566Z" fill="#949191"/>
<path d="M1.67712 6.05713C1.6634 6.064 1.64771 6.06592 1.63272 6.06255C1.61774 6.05919 1.6044 6.05075 1.59498 6.03869C1.56915 6.01102 1.56385 5.97283 1.58372 5.9557C1.60359 5.93858 1.63936 5.94648 1.6652 5.97414C1.69103 6.0018 1.69699 6.04 1.67712 6.05713Z" fill="#949191"/>
<path d="M1.51483 5.87733C1.50622 5.89709 1.47443 5.90302 1.4486 5.88919C1.42276 5.87536 1.40356 5.84967 1.41283 5.82926C1.4221 5.80884 1.45323 5.80357 1.47907 5.8174C1.5049 5.83123 1.52477 5.85758 1.51483 5.87733Z" fill="#949191"/>
</g>
<defs>
<clipPath id="clip0_2_151">
<rect width="8" height="8" fill="white"/>
</clipPath>
</defs>
</svg>
