<svg width="8" height="8" viewBox="0 0 8 8" fill="none" xmlns="http://www.w3.org/2000/svg">
<g clip-path="url(#clip0_2_225)">
<path fill-rule="evenodd" clip-rule="evenodd" d="M4.00005 0.166664C3.05046 0.167157 2.132 0.503484 1.40892 1.11551C0.685828 1.72753 0.20526 2.57533 0.0531408 3.50733C-0.0989788 4.43933 0.0872682 5.39474 0.578583 6.20272C1.0699 7.01071 1.83424 7.61859 2.73494 7.91765C2.93364 7.95454 3.00849 7.83138 3.00849 7.72666C3.00849 7.62195 3.00452 7.31833 3.00319 6.9864C1.89042 7.22679 1.65529 6.51683 1.65529 6.51683C1.4738 6.05581 1.2115 5.93463 1.2115 5.93463C0.848531 5.68831 1.23866 5.69292 1.23866 5.69292C1.64072 5.72124 1.85201 6.10323 1.85201 6.10323C2.20836 6.71111 2.78792 6.53527 3.01578 6.43253C3.05154 6.17502 3.15554 5.99983 3.27012 5.90038C2.38124 5.80028 1.44731 5.45912 1.44731 3.93514C1.4418 3.5399 1.5893 3.15768 1.8593 2.86756C1.81823 2.76745 1.68112 2.36308 1.89837 1.81381C1.89837 1.81381 2.23419 1.70712 2.99856 2.22148C3.65418 2.04321 4.34591 2.04321 5.00154 2.22148C5.76524 1.70712 6.10039 1.81381 6.10039 1.81381C6.31831 2.36176 6.1812 2.76613 6.14014 2.86756C6.41099 3.15773 6.5588 3.54061 6.55279 3.93646C6.55279 5.46373 5.61687 5.80028 4.72666 5.89841C4.86973 6.02222 4.99756 6.26393 4.99756 6.63537C4.99756 7.16752 4.99293 7.5956 4.99293 7.72666C4.99293 7.8327 5.06512 7.95651 5.2678 7.91765C6.16861 7.61855 6.93302 7.01057 7.42433 6.20244C7.91564 5.39432 8.10179 4.43876 7.94949 3.50668C7.7972 2.5746 7.31639 1.72678 6.59307 1.11487C5.86974 0.50295 4.95107 0.166845 4.00137 0.166664H4.00005Z" fill="#949191"/>
<path d="M2.67594 6.65843C2.67594 6.6907 2.63885 6.71836 2.59116 6.71902C2.54347 6.71967 2.50439 6.69333 2.50439 6.66106C2.50439 6.62879 2.54148 6.60113 2.58917 6.60047C2.63686 6.59981 2.67594 6.6255 2.67594 6.65843Z" fill="#949191"/>
<path d="M2.98071 6.60771C2.98667 6.63999 2.95356 6.67357 2.90587 6.68148C2.85818 6.68938 2.81645 6.67028 2.81049 6.63867C2.80452 6.60706 2.83897 6.57281 2.88533 6.56425C2.9317 6.55569 2.97475 6.57544 2.98071 6.60771Z" fill="#949191"/>
<path d="M2.34864 6.63603C2.33871 6.66698 2.29367 6.68081 2.24863 6.66764C2.20359 6.65447 2.17378 6.61759 2.18239 6.58598C2.191 6.55436 2.2367 6.53987 2.28241 6.55436C2.32811 6.56885 2.35725 6.60376 2.34864 6.63603Z" fill="#949191"/>
<path d="M2.04862 6.50694C2.02677 6.53131 1.98239 6.52473 1.94596 6.4918C1.90953 6.45887 1.90092 6.41408 1.92277 6.39037C1.94463 6.36666 1.98901 6.37325 2.02676 6.40552C2.06452 6.43779 2.07181 6.48323 2.04862 6.50694V6.50694Z" fill="#949191"/>
<path d="M1.83479 6.28566C1.81028 6.30278 1.76855 6.28566 1.74537 6.25142C1.73896 6.24527 1.73386 6.23791 1.73038 6.22976C1.72689 6.22161 1.7251 6.21285 1.7251 6.204C1.7251 6.19514 1.72689 6.18638 1.73038 6.17823C1.73386 6.17009 1.73896 6.16272 1.74537 6.15658C1.76988 6.14011 1.81161 6.15658 1.83479 6.19017C1.85797 6.22375 1.85863 6.26854 1.83479 6.28566V6.28566Z" fill="#949191"/>
<path d="M1.67699 6.05713C1.66328 6.064 1.64758 6.06592 1.6326 6.06255C1.61762 6.05919 1.60428 6.05075 1.59486 6.03869C1.56903 6.01102 1.56373 5.97283 1.5836 5.9557C1.60347 5.93858 1.63924 5.94648 1.66507 5.97414C1.69091 6.0018 1.69687 6.04 1.67699 6.05713Z" fill="#949191"/>
<path d="M1.51477 5.87733C1.50616 5.89709 1.47437 5.90302 1.44854 5.88919C1.4227 5.87536 1.4035 5.84967 1.41277 5.82926C1.42204 5.80884 1.45317 5.80357 1.47901 5.8174C1.50484 5.83123 1.52471 5.85758 1.51477 5.87733Z" fill="#949191"/>
</g>
<defs>
<clipPath id="clip0_2_225">
<rect width="8" height="8" fill="white"/>
</clipPath>
</defs>
</svg>
