<svg width="8" height="8" viewBox="0 0 8 8" fill="none" xmlns="http://www.w3.org/2000/svg">
<g clip-path="url(#clip0_1_114)">
<path d="M7.40781 0H0.590625C0.264062 0 0 0.257813 0 0.576563V7.42188C0 7.74063 0.264062 8 0.590625 8H7.40781C7.73438 8 8 7.74063 8 7.42344V0.576563C8 0.257813 7.73438 0 7.40781 0ZM2.37344 6.81719H1.18594V2.99844H2.37344V6.81719ZM1.77969 2.47813C1.39844 2.47813 1.09063 2.17031 1.09063 1.79062C1.09063 1.41094 1.39844 1.10312 1.77969 1.10312C2.15938 1.10312 2.46719 1.41094 2.46719 1.79062C2.46719 2.16875 2.15938 2.47813 1.77969 2.47813ZM6.81719 6.81719H5.63125V4.96094C5.63125 4.51875 5.62344 3.94844 5.01406 3.94844C4.39687 3.94844 4.30312 4.43125 4.30312 4.92969V6.81719H3.11875V2.99844H4.25625V3.52031H4.27187C4.42969 3.22031 4.81719 2.90313 5.39375 2.90313C6.59531 2.90313 6.81719 3.69375 6.81719 4.72188V6.81719V6.81719Z" fill="#878484"/>
</g>
<defs>
<clipPath id="clip0_1_114">
<rect width="8" height="8" fill="white"/>
</clipPath>
</defs>
</svg>
