<svg width="8" height="8" viewBox="0 0 8 8" fill="none" xmlns="http://www.w3.org/2000/svg">
<g clip-path="url(#clip0_1_110)">
<path d="M2.51672 7.25C5.53484 7.25 7.18609 4.7489 7.18609 2.58062C7.18609 2.51031 7.18453 2.43843 7.18141 2.36812C7.50263 2.13582 7.77983 1.84808 8 1.51843C7.70084 1.65153 7.38321 1.73846 7.05797 1.77625C7.40043 1.57097 7.65684 1.24849 7.77969 0.868589C7.45752 1.05952 7.10519 1.1942 6.73781 1.26687C6.49028 1.00385 6.163 0.829705 5.80656 0.77135C5.45013 0.712995 5.0844 0.773683 4.76591 0.944032C4.44743 1.11438 4.19393 1.3849 4.04462 1.71377C3.8953 2.04264 3.85848 2.41154 3.93984 2.76343C3.2875 2.7307 2.64931 2.56123 2.06666 2.26603C1.48401 1.97083 0.969898 1.55648 0.557656 1.04984C0.348133 1.41108 0.284019 1.83855 0.378344 2.24536C0.472668 2.65218 0.718354 3.00782 1.06547 3.24C0.804876 3.23172 0.549992 3.16156 0.321875 3.03531V3.05562C0.321642 3.43472 0.452699 3.8022 0.69277 4.09559C0.932841 4.38898 1.26711 4.59019 1.63875 4.665C1.39735 4.73104 1.14399 4.74067 0.898281 4.69312C1.00315 5.01915 1.20719 5.3043 1.48192 5.50878C1.75666 5.71326 2.08837 5.82687 2.43078 5.83375C1.84947 6.29037 1.13139 6.53804 0.392188 6.53687C0.261096 6.53667 0.130133 6.52864 0 6.51281C0.750952 6.99458 1.62451 7.25046 2.51672 7.25Z" fill="#A7A7A7"/>
</g>
<defs>
<clipPath id="clip0_1_110">
<rect width="8" height="8" fill="white"/>
</clipPath>
</defs>
</svg>
