<svg width="8" height="8" viewBox="0 0 8 8" fill="none" xmlns="http://www.w3.org/2000/svg">
<g clip-path="url(#clip0_2_149)">
<path d="M2.51672 7.25001C5.53484 7.25001 7.18609 4.74892 7.18609 2.58064C7.18609 2.51032 7.18453 2.43845 7.18141 2.36814C7.50263 2.13584 7.77983 1.8481 8 1.51845C7.70084 1.65155 7.38321 1.73848 7.05797 1.77626C7.40043 1.57098 7.65684 1.24851 7.77969 0.868604C7.45752 1.05953 7.10519 1.19422 6.73781 1.26689C6.49028 1.00387 6.163 0.829721 5.80656 0.771366C5.45013 0.71301 5.0844 0.773699 4.76591 0.944047C4.44743 1.1144 4.19393 1.38492 4.04462 1.71379C3.8953 2.04265 3.85848 2.41155 3.93984 2.76345C3.2875 2.73071 2.64931 2.56125 2.06666 2.26605C1.48401 1.97085 0.969898 1.55649 0.557656 1.04985C0.348133 1.4111 0.284019 1.83856 0.378344 2.24538C0.472668 2.65219 0.718354 3.00783 1.06547 3.24001C0.804876 3.23174 0.549992 3.16158 0.321875 3.03532V3.05564C0.321642 3.43473 0.452699 3.80221 0.69277 4.09561C0.932841 4.389 1.26711 4.5902 1.63875 4.66501C1.39735 4.73106 1.14399 4.74068 0.898281 4.69314C1.00315 5.01916 1.20719 5.30431 1.48192 5.50879C1.75666 5.71327 2.08837 5.82688 2.43078 5.83376C1.84947 6.29039 1.13139 6.53806 0.392188 6.53689C0.261096 6.53669 0.130133 6.52865 0 6.51282C0.750952 6.9946 1.62451 7.25048 2.51672 7.25001Z" fill="#A7A7A7"/>
</g>
<defs>
<clipPath id="clip0_2_149">
<rect width="8" height="8" fill="white"/>
</clipPath>
</defs>
</svg>
